<mxfile host="app.diagrams.net" modified="2023-11-20T15:45:39.524Z" agent="Mozilla/5.0 (Windows NT 10.0; Win64; x64) AppleWebKit/537.36 (KHTML, like Gecko) Chrome/119.0.0.0 Safari/537.36 Edg/119.0.0.0" etag="ZqIPnIAqbIHVKPCkLZ1x" version="22.1.3" type="github">
  <diagram name="Seite-1" id="R5NDOeXmMaofM5CvEvCr">
    <mxGraphModel dx="855" dy="546" grid="1" gridSize="10" guides="1" tooltips="1" connect="1" arrows="1" fold="1" page="1" pageScale="1" pageWidth="1169" pageHeight="827" math="0" shadow="0">
      <root>
        <mxCell id="0" />
        <mxCell id="1" parent="0" />
        <mxCell id="s9PK78JfT4W9NMTNqEp0-1" value="Geometry" style="rounded=1;whiteSpace=wrap;html=1;fontFamily=Rubik light;fontSize=18;" vertex="1" parent="1">
          <mxGeometry x="80" y="240" width="120" height="60" as="geometry" />
        </mxCell>
        <mxCell id="s9PK78JfT4W9NMTNqEp0-3" value="Electron Density" style="rounded=1;whiteSpace=wrap;html=1;fontFamily=Rubik light;fontSize=18;" vertex="1" parent="1">
          <mxGeometry x="80" y="400" width="120" height="60" as="geometry" />
        </mxCell>
        <mxCell id="s9PK78JfT4W9NMTNqEp0-4" value="" style="endArrow=classic;startArrow=classic;html=1;rounded=0;entryX=0.5;entryY=1;entryDx=0;entryDy=0;" edge="1" parent="1" source="s9PK78JfT4W9NMTNqEp0-3" target="s9PK78JfT4W9NMTNqEp0-1">
          <mxGeometry width="50" height="50" relative="1" as="geometry">
            <mxPoint x="410" y="380" as="sourcePoint" />
            <mxPoint x="460" y="330" as="targetPoint" />
          </mxGeometry>
        </mxCell>
        <mxCell id="s9PK78JfT4W9NMTNqEp0-5" value="Potential Energy" style="rounded=1;whiteSpace=wrap;html=1;fontFamily=Rubik light;fontSize=18;" vertex="1" parent="1">
          <mxGeometry x="270" y="240" width="120" height="60" as="geometry" />
        </mxCell>
        <mxCell id="s9PK78JfT4W9NMTNqEp0-7" value="" style="edgeStyle=elbowEdgeStyle;elbow=horizontal;endArrow=classic;html=1;curved=0;rounded=0;endSize=8;startSize=8;exitX=0.75;exitY=0;exitDx=0;exitDy=0;entryX=0.5;entryY=0;entryDx=0;entryDy=0;" edge="1" parent="1" source="s9PK78JfT4W9NMTNqEp0-1" target="s9PK78JfT4W9NMTNqEp0-5">
          <mxGeometry width="50" height="50" relative="1" as="geometry">
            <mxPoint x="410" y="380" as="sourcePoint" />
            <mxPoint x="460" y="330" as="targetPoint" />
            <Array as="points">
              <mxPoint x="240" y="210" />
            </Array>
          </mxGeometry>
        </mxCell>
        <mxCell id="s9PK78JfT4W9NMTNqEp0-8" value="" style="edgeStyle=elbowEdgeStyle;elbow=horizontal;endArrow=classic;html=1;curved=0;rounded=0;endSize=8;startSize=8;exitX=0.75;exitY=1;exitDx=0;exitDy=0;entryX=0.5;entryY=1;entryDx=0;entryDy=0;" edge="1" parent="1" source="s9PK78JfT4W9NMTNqEp0-1" target="s9PK78JfT4W9NMTNqEp0-5">
          <mxGeometry width="50" height="50" relative="1" as="geometry">
            <mxPoint x="150" y="250" as="sourcePoint" />
            <mxPoint x="340" y="250" as="targetPoint" />
            <Array as="points">
              <mxPoint x="230" y="320" />
            </Array>
          </mxGeometry>
        </mxCell>
      </root>
    </mxGraphModel>
  </diagram>
</mxfile>
